<?xml version="1.0" standalone="no"?>
<!DOCTYPE svg PUBLIC "-//W3C//DTD SVG 20010904//EN"
 "http://www.w3.org/TR/2001/REC-SVG-20010904/DTD/svg10.dtd">
<svg version="1.0" xmlns="http://www.w3.org/2000/svg"
 width="640.000000pt" height="640.000000pt" viewBox="0 0 640.000000 640.000000"
 preserveAspectRatio="xMidYMid meet">
<metadata>
Created by potrace 1.15, written by Peter Selinger 2001-2017
</metadata>
<g transform="translate(0.000000,640.000000) scale(0.100000,-0.100000)"
fill="#000000" stroke="none">
<path d="M2885 6344 c-145 -15 -413 -65 -520 -95 -507 -146 -940 -386 -1309
-729 -71 -66 -211 -209 -246 -253 -14 -17 -39 -47 -56 -67 -67 -77 -234 -312
-234 -329 0 -5 -6 -16 -13 -23 -45 -45 -185 -326 -251 -503 -21 -55 -43 -113
-49 -130 -7 -16 -12 -32 -12 -35 -1 -3 -8 -27 -18 -55 -27 -80 -73 -289 -96
-430 -56 -355 -55 -654 5 -1015 33 -199 70 -343 141 -544 56 -158 202 -470
249 -532 13 -17 24 -34 24 -38 0 -19 194 -294 261 -371 98 -113 229 -251 284
-300 36 -33 81 -73 99 -90 18 -16 56 -48 85 -70 29 -22 58 -45 65 -50 74 -68
347 -234 536 -327 121 -60 387 -164 480 -188 219 -56 435 -97 555 -106 39 -3
76 -7 84 -10 18 -6 438 -5 506 1 239 22 577 90 720 145 28 10 109 40 180 66
72 26 138 54 149 63 10 9 19 14 20 12 3 -9 228 111 331 176 277 175 449 317
665 548 118 126 262 315 344 450 27 44 57 92 67 106 19 29 82 152 149 293 52
111 151 394 180 518 66 283 91 492 91 777 -1 647 -187 1249 -551 1781 -36 52
-72 103 -82 115 -9 11 -42 52 -73 90 -127 157 -253 283 -447 448 -200 171
-567 391 -793 476 -33 13 -69 27 -80 32 -40 18 -227 79 -320 104 -131 35 -409
83 -540 93 -167 14 -435 12 -580 -4z m760 -63 c359 -55 740 -179 1005 -329 36
-20 90 -50 120 -67 86 -48 120 -69 120 -77 0 -15 -139 -531 -145 -536 -2 -2
-21 27 -43 65 -28 46 -62 86 -109 125 -93 78 -139 126 -163 173 l-20 40 6 -40
c10 -63 33 -103 82 -143 62 -51 94 -83 146 -150 54 -69 66 -98 66 -160 -1 -93
-36 -137 -229 -285 -35 -27 -61 -50 -58 -53 5 -5 107 52 171 95 103 71 175
195 205 356 31 158 84 293 140 353 30 32 39 52 24 52 -4 0 -26 -19 -49 -41
l-42 -42 24 83 c13 46 25 84 27 86 3 4 111 -71 153 -106 17 -14 43 -34 59 -45
50 -35 217 -188 290 -265 38 -41 89 -95 113 -120 42 -44 50 -54 123 -148 72
-94 207 -299 254 -387 27 -49 56 -103 65 -120 45 -81 128 -287 177 -435 172
-526 197 -1134 68 -1670 -14 -58 -27 -109 -29 -115 -1 -5 -10 -37 -20 -70 -36
-127 -125 -354 -190 -482 -87 -175 -238 -412 -350 -551 -30 -37 -65 -80 -78
-96 -45 -56 -254 -263 -348 -345 -375 -324 -885 -573 -1385 -675 -685 -139
-1389 -48 -2015 262 -41 20 -91 46 -110 58 -19 12 -78 47 -130 78 -146 87
-294 195 -405 295 -28 26 -69 62 -90 81 -40 36 -192 194 -250 260 -237 269
-499 744 -594 1075 -11 39 -29 102 -40 140 -22 74 -61 270 -83 420 -20 140
-17 639 5 785 53 352 150 672 290 960 104 215 272 469 440 665 66 77 255 265
331 330 113 96 291 224 415 298 263 158 487 254 821 350 118 34 336 71 545 91
22 2 157 2 300 1 195 -3 293 -9 390 -24z"/>
<path d="M3816 5961 c-18 -71 -18 -82 4 -201 17 -92 7 -180 -30 -258 -16 -35
-30 -67 -30 -70 0 -14 64 57 87 95 28 49 30 81 9 208 -12 77 -14 171 -4 264 2
13 -2 26 -8 28 -5 2 -18 -28 -28 -66z"/>
<path d="M2734 5202 c-33 -75 -141 -261 -197 -337 -20 -27 -57 -78 -82 -112
-25 -35 -49 -63 -54 -63 -5 0 -13 10 -16 23 -17 57 -82 210 -122 290 -76 149
-61 92 30 -113 50 -115 87 -224 81 -244 -11 -39 -53 -141 -92 -226 -63 -137
-77 -186 -76 -275 0 -62 6 -94 27 -145 14 -36 29 -94 33 -130 l6 -65 -36 34
c-41 39 -44 36 -17 -17 25 -50 50 -124 56 -170 6 -49 -35 -536 -85 -992 -21
-201 -44 -419 -50 -485 -6 -66 -13 -133 -16 -150 -4 -26 -3 -28 9 -15 9 9 19
65 26 150 16 173 66 586 91 760 11 74 22 153 25 175 29 221 41 267 92 368 70
140 168 263 298 373 128 109 373 252 408 238 16 -6 55 -99 137 -324 99 -271
100 -273 243 -450 38 -46 71 -89 75 -95 33 -51 180 -145 228 -145 11 0 29 -9
39 -20 17 -19 17 -30 0 -276 -23 -337 -15 -451 61 -811 165 -790 158 -750 150
-873 -5 -84 -66 -394 -81 -408 -3 -3 -5 87 -5 200 0 191 -1 207 -20 231 -11
14 -35 31 -54 37 -42 14 -61 35 -125 139 -29 46 -61 95 -72 110 l-21 26 7
-165 c3 -91 8 -195 10 -232 l4 -68 -105 0 c-57 0 -107 -1 -111 -2 -5 -2 -10
29 -12 67 l-3 70 -13 -65 c-7 -36 -22 -86 -34 -110 -21 -46 -91 -130 -108
-130 -5 0 -21 30 -37 67 -42 98 -52 106 -60 47 -3 -27 -8 -98 -12 -159 -10
-196 -13 -205 -65 -205 l-39 0 -1 78 c-1 42 -2 88 -4 102 -1 14 -6 103 -9 199
-7 175 -26 306 -49 328 -20 20 -129 44 -162 35 -27 -8 -32 -15 -47 -78 -10
-38 -22 -105 -28 -149 -19 -142 -8 -133 -106 -80 -47 25 -90 43 -95 40 -5 -3
-30 -35 -55 -71 -32 -45 -49 -62 -54 -52 -4 7 -13 78 -19 158 -15 177 -20 213
-31 224 -13 13 -24 -98 -46 -434 -4 -58 -8 -107 -10 -109 -2 -2 -21 4 -42 13
-49 22 -73 62 -68 113 3 21 8 92 12 158 4 66 8 122 9 125 8 31 23 341 17 353
-2 5 -38 -67 -79 -160 -95 -215 -225 -478 -258 -523 -45 -62 -139 -152 -172
-166 -18 -8 -44 -14 -58 -14 l-26 0 59 113 c33 62 74 146 92 187 18 41 45 104
61 139 57 124 155 436 184 586 18 95 45 259 44 273 0 9 -11 -32 -25 -93 -49
-220 -126 -495 -159 -570 -8 -16 -37 -88 -66 -160 -82 -206 -171 -384 -227
-457 -60 -77 -64 -93 -24 -84 87 21 168 52 210 80 42 29 125 133 117 146 -6
10 13 33 27 36 103 15 118 15 118 4 0 -7 -18 -48 -40 -91 -22 -44 -40 -82 -40
-85 0 -4 12 -4 27 -1 42 8 81 -12 106 -52 43 -73 122 -170 138 -171 18 0 29
60 29 162 0 68 7 88 30 88 31 0 37 22 44 160 4 74 9 136 11 138 3 4 8 -24 20
-127 8 -67 20 -71 52 -18 34 56 49 64 83 39 34 -26 36 -51 7 -114 -40 -89 -89
-229 -82 -236 3 -4 25 4 48 17 45 26 100 30 146 11 48 -19 75 -6 124 62 59 81
123 148 168 176 20 12 38 22 41 22 2 0 6 -54 7 -120 1 -65 6 -133 11 -149 4
-16 6 -32 2 -35 -7 -8 74 -6 123 2 22 4 40 12 41 17 2 27 16 252 17 267 1 10
4 18 8 18 8 0 29 -47 29 -65 0 -29 21 -25 57 10 44 43 70 51 118 35 73 -24
142 -115 169 -222 3 -16 11 -28 16 -28 11 0 62 97 80 155 18 55 62 142 99 192
28 38 107 102 114 92 3 -3 0 -99 -14 -461 -3 -72 3 -100 17 -85 4 3 19 50 35
104 64 221 102 348 105 352 2 2 42 -38 91 -88 79 -82 113 -107 113 -82 0 27
-55 163 -90 225 -83 142 -98 205 -169 706 -34 237 -62 420 -77 505 -41 232
-59 552 -43 763 21 281 85 587 151 715 35 69 59 96 163 181 217 177 357 279
384 278 32 -1 180 -50 201 -66 8 -7 44 -29 80 -51 36 -21 97 -62 135 -90 107
-77 125 -88 125 -72 0 7 -63 55 -140 106 -77 51 -138 97 -135 102 3 5 -1 6 -9
3 -8 -3 -35 8 -60 25 -24 17 -49 31 -53 31 -5 0 -15 6 -21 12 -7 7 -30 18 -50
23 -20 6 -37 15 -36 20 1 6 85 53 188 105 102 52 193 104 200 116 18 26 110
195 119 218 15 38 -17 -1 -88 -110 -66 -100 -81 -117 -118 -131 -92 -36 -237
-118 -386 -219 -257 -173 -315 -214 -344 -242 l-28 -27 17 40 c33 80 95 302
110 395 8 52 14 125 12 160 l-3 65 -13 -85 c-42 -277 -122 -495 -254 -691
-102 -152 -139 -265 -173 -525 -4 -27 -10 -52 -13 -56 -12 -12 -141 10 -188
32 -48 24 -133 117 -207 228 -88 134 -105 256 -49 374 50 103 37 112 -23 18
-30 -47 -58 -83 -62 -80 -8 4 -52 120 -143 371 -26 75 -63 170 -80 210 -74
171 -91 279 -57 345 17 32 314 339 380 392 43 34 158 66 285 78 39 3 72 11 72
16 0 7 -24 8 -62 4 -206 -19 -208 -19 -208 -2 0 22 -6 20 -43 -13 -17 -15 -59
-52 -92 -81 -178 -157 -313 -292 -345 -346 -34 -56 -35 -61 -33 -151 1 -51 -2
-93 -6 -93 -4 0 -13 6 -20 13 -26 23 -2 -40 66 -180 50 -102 64 -140 56 -152
-5 -9 -43 -33 -84 -55 -305 -158 -422 -251 -568 -454 -40 -56 -80 -102 -87
-102 -10 0 -14 14 -14 48 -1 58 -10 255 -14 302 -2 19 -11 103 -20 186 -19
175 -17 194 45 342 54 131 115 244 281 518 86 143 147 256 159 294 11 35 18
64 16 66 -2 2 -17 -27 -33 -64z"/>
<path d="M3295 2900 c-38 -14 -49 -39 -49 -108 -1 -112 35 -166 94 -142 50 21
61 97 29 197 -12 39 -47 63 -74 53z"/>
<path d="M2611 2859 c-21 -20 -23 -29 -19 -105 3 -95 18 -121 62 -110 32 8 52
46 61 116 6 53 5 58 -23 88 -35 38 -50 40 -81 11z"/>
</g>
</svg>
